Coordinates
version=1
nRows=14
nColumns=40
inDegrees=yes

Units are S.I. units (second, meters, Newtons, ...)
Angles are in degrees.

endheader
time	pelvis_tilt	pelvis_list	pelvis_rotation	pelvis_tx	pelvis_ty	pelvis_tz	hip_flexion_r	hip_adduction_r	hip_rotation_r	knee_angle_r	knee_angle_r_beta	ankle_angle_r	subtalar_angle_r	mtp_angle_r	hip_flexion_l	hip_adduction_l	hip_rotation_l	knee_angle_l	knee_angle_l_beta	ankle_angle_l	subtalar_angle_l	mtp_angle_l	lumbar_extension	lumbar_bending	lumbar_rotation	arm_flex_r	arm_add_r	arm_rot_r	elbow_flex_r	pro_sup_r	wrist_flex_r	wrist_dev_r	arm_flex_l	arm_add_l	arm_rot_l	elbow_flex_l	pro_sup_l	wrist_flex_l	wrist_dev_l
     53.90000000	     -2.19231074	     -2.89149269	      2.03558058	      0.97940160	      0.92465323	      0.40551516	     22.12618514	     -8.24515882	     -5.89047464	     68.07552628	     68.07552628	    -12.05853659	    -18.71901159	     -2.82829631	     18.38025852	     -0.10627933	      1.57237264	     28.02707360	     28.02707360	     14.53624808	    -16.58922091	      4.45621965	     -9.34561279	      3.14314001	      4.19450659	     24.72569963	    -12.00934612	     -6.92025180	     43.69645277	     44.82500825	      0.00000000	      0.00000000	     16.96567690	    -12.38591699	     11.42980937	     35.60590566	     44.83774026	      0.00000000	      0.00000000
     53.91885714	     -1.88165754	     -2.98302264	      1.53309238	      0.97972922	      0.92366713	      0.40361055	     23.74000483	     -8.00033990	     -5.12451189	     70.17421835	     70.17421835	     -9.82926359	    -19.03172646	      3.11725082	     18.00780829	     -0.14915089	      1.30180576	     28.88583528	     28.88583528	     15.37100565	    -16.83446868	      4.83518437	     -9.58534782	      3.58889221	      4.14229955	     21.74062295	    -11.99204111	     -7.25858040	     40.76921328	     44.98967819	      0.00000000	      0.00000000	     18.50063615	    -12.63149419	     11.20572690	     37.28257162	     44.95749670	      0.00000000	      0.00000000
     53.93771429	     -1.58853181	     -3.07727301	      1.02133056	      0.98010698	      0.92265710	      0.40162138	     25.21386492	     -7.83016532	     -4.52575534	     71.85017031	     71.85017031	     -8.19450761	    -19.29826197	      6.23229712	     17.58969910	     -0.17629555	      1.02592733	     29.64365210	     29.64365210	     16.09701095	    -17.12825745	      5.02569000	     -9.83906664	      4.04477561	      4.51473166	     18.38083676	    -12.36478749	     -7.46482355	     37.99724446	     45.11093981	      0.00000000	      0.00000000	     20.24484040	    -12.64123620	     10.90103927	     39.07433194	     45.05360807	      0.00000000	      0.00000000
     53.95657143	     -1.31970473	     -3.10759058	      0.55708234	      0.98042890	      0.92173272	      0.39985097	     26.78060546	     -7.52953190	     -3.84675698	     73.38279934	     73.38279934	     -5.17228192	    -19.35349317	     13.44391780	     17.20076402	     -0.14817299	      0.73317771	     30.42859595	     30.42859595	     17.13100223	    -17.17702109	      5.92593937	    -10.10785179	      4.42695235	      3.96684053	     16.07292261	    -12.01497684	     -8.39675987	     34.21421591	     45.35524503	      0.00000000	      0.00000000	     21.48710488	    -13.29256539	     10.52857372	     41.05940810	     45.19960479	      0.00000000	      0.00000000
     53.97542857	     -1.08615208	     -3.08706542	      0.08613252	      0.98079994	      0.92096815	      0.39809301	     28.00176936	     -7.45091454	     -3.45262885	     74.06303002	     74.06303002	     -3.71017977	    -19.44463343	     14.04679990	     16.68201347	     -0.06674392	      0.38083457	     30.87265072	     30.87265072	     17.68409311	    -17.34567324	      5.91135632	    -10.35536341	      4.72499710	      4.11287213	     12.85706592	    -12.37989129	     -8.57276199	     32.01834920	     45.44444428	      0.00000000	      0.00000000	     23.22590008	    -13.39172018	     10.12525646	     42.53570747	     45.28793578	      0.00000000	      0.00000000
     53.99428571	     -0.87183140	     -3.16493705	     -0.36200168	      0.98118278	      0.92065133	      0.39677054	     29.13316565	     -7.03689862	     -3.05315429	     74.22494814	     74.22494814	     -1.14231272	    -19.46750505	     17.94332166	     16.11144338	     -0.12179222	      0.03132215	     31.19099132	     31.19099132	     18.50720425	    -17.26278353	      6.66076971	    -10.58618317	      5.12339513	      3.70127672	     10.74084436	    -12.27260280	     -9.90428911	     28.30667803	     45.73685469	      0.00000000	      0.00000000	     24.27057018	    -13.92248857	      9.17694042	     44.69581202	     45.48985589	      0.00000000	      0.00000000
     54.01314286	     -0.71886850	     -3.19748403	     -0.81394390	      0.98154451	      0.92061736	      0.39569912	     29.98277641	     -6.74180105	     -2.86605836	     73.51693496	     73.51693496	      0.46922750	    -19.46748476	     17.76140405	     15.45292652	     -0.15612754	     -0.39592413	     31.18541496	     31.18541496	     18.91927791	    -17.20811204	      6.63105542	    -10.78064683	      5.42749237	      3.74918559	      7.78536729	    -12.59744887	    -10.16694073	     26.56880624	     45.82057962	      0.00000000	      0.00000000	     25.75146873	    -14.10146165	      8.63180677	     46.08212817	     45.58604745	      0.00000000	      0.00000000
     54.03200000	     -0.64878469	     -3.26226190	     -1.23273647	      0.98186710	      0.92095806	      0.39499075	     30.65782531	     -6.35515737	     -2.79829859	     72.04687256	     72.04687256	      2.13344238	    -19.42630023	     17.50311252	     14.75665562	     -0.24391037	     -0.80858765	     30.92026168	     30.92026168	     19.24829598	    -17.06183967	      6.62497714	    -10.88920058	      5.72985919	      3.63003699	      5.01970938	    -12.84236758	    -10.40737195	     25.08473716	     45.89253258	      0.00000000	      0.00000000	     27.01565275	    -14.35095401	      8.03227084	     47.45010107	     45.68001885	      0.00000000	      0.00000000
     54.05085714	     -0.66797505	     -3.33683811	     -1.69178149	      0.98208150	      0.92160589	      0.39476563	     31.17026100	     -5.86172068	     -2.73180056	     69.81628052	     69.81628052	      3.70038710	    -19.34415884	     16.94790182	     14.06543607	     -0.38715359	     -1.30613923	     30.46848769	     30.46848769	     19.47906128	    -16.83844493	      6.59003875	    -10.93514148	      5.99505510	      3.55265821	      2.35860046	    -13.09091003	    -10.71624566	     23.81610883	     45.96587047	      0.00000000	      0.00000000	     28.10719823	    -14.64542165	      7.22028603	     49.05911867	     45.79454963	      0.00000000	      0.00000000
     54.06971429	     -0.81026998	     -3.42472784	     -2.13165015	      0.98224877	      0.92246126	      0.39486967	     31.44308767	     -5.40236954	     -2.82797985	     66.71650522	     66.71650522	      4.54516374	    -19.20986340	     14.17516027	     13.39094045	     -0.57680595	     -1.85055344	     29.77416483	     29.77416483	     19.48558758	    -16.51278937	      6.09298343	    -10.88491368	      6.24459953	      2.96188697	     -0.02357451	    -13.13173335	    -11.90127641	     23.28210324	     46.13769878	      0.00000000	      0.00000000	     28.22289958	    -15.08341422	      4.70071528	     52.22074632	     46.10360639	      0.00000000	      0.00000000
     54.08857143	     -1.02627890	     -3.51301528	     -2.60282025	      0.98236187	      0.92352873	      0.39537408	     31.48243618	     -4.89817736	     -2.91442787	     62.87350251	     62.87350251	      5.08325923	    -18.97012162	     10.96519631	     12.73194259	     -0.78957277	     -2.41844924	     28.96131624	     28.96131624	     19.40626757	    -16.18531261	      5.66933978	    -10.72683755	      6.44813946	      2.79076174	     -2.57394178	    -13.29446458	    -12.59919312	     22.80570748	     46.25436536	      0.00000000	      0.00000000	     28.87425914	    -15.31982069	      3.20391010	     54.21421829	     46.30198031	      0.00000000	      0.00000000
     54.10742857	     -1.20399023	     -3.66566578	     -3.08239219	      0.98236380	      0.92495768	      0.39631819	     31.24403263	     -4.22705378	     -2.91076105	     58.52466842	     58.52466842	      6.08747621	    -18.45500559	     10.13537796	     11.88390470	     -1.05614870	     -2.91749781	     27.87150914	     27.87150914	     19.45209421	    -15.82352997	      5.73497607	    -10.64887266	      6.69890392	      2.66356035	     -4.74173856	    -13.46731521	    -12.75100776	     22.17730088	     46.28505157	      0.00000000	      0.00000000	     29.75996906	    -15.68569853	      2.68905764	     55.32137894	     46.37386026	      0.00000000	      0.00000000
     54.12628571	     -1.51737448	     -3.74510884	     -3.59184703	      0.98242600	      0.92608408	      0.39747330	     30.64589133	     -3.84185154	     -3.18273482	     53.24036029	     53.24036029	      4.89200573	    -17.91842139	      2.75234434	     11.15308685	     -1.29087643	     -3.59526223	     26.70544075	     26.70544075	     19.06145941	    -15.43744878	      4.72826047	    -10.50823177	      6.86208302	      2.35130638	     -7.41699859	    -13.56485717	    -13.53432056	     23.65442992	     46.31748202	      0.00000000	      0.00000000	     29.69569498	    -16.00577693	      0.50314391	     58.60937570	     46.63981933	      0.00000000	      0.00000000
     54.14514286	     -2.06189071	     -3.85684727	     -4.07855030	      0.98221728	      0.92685051	      0.39913898	     30.33166600	     -3.23343149	     -3.19018340	     48.15845830	     48.15845830	      5.69082637	    -16.29167060	      2.68490997	     10.77164660	     -1.55176518	     -4.03744861	     25.72550323	     25.72550323	     19.06297080	    -15.17739651	      4.85939115	     -9.97428502	      7.01459808	      2.17094572	     -9.24390587	    -13.55586021	    -13.58778522	     23.05568897	     46.33382766	      0.00000000	      0.00000000	     30.54996096	    -16.58498897	      0.15158082	     59.31509984	     46.68723075	      0.00000000	      0.00000000
